<svg width="1032" height="173" viewBox="0 0 1032 173" fill="none" xmlns="http://www.w3.org/2000/svg">
<path d="M0.5 43.4191L73.4977 0.585449L89.9055 10.9592L25.9487 48.7733L40.6822 57.8085L106.313 20.6637L147.5 43.4191V53.7929L73.4977 96.6265L57.4248 85.9181L121.716 48.7733L106.313 40.0727L40.6822 77.2175L0.5 53.7929V43.4191Z" fill="url(#paint0_linear_3241_2)"/>
<path d="M0.5 129.086V72.198L73.4977 114.362L147.5 72.198V91.607L73.4977 133.437L16.9077 101.311V119.717L73.4977 151.842L147.5 110.681V129.086L73.4977 171.585L0.5 129.086Z" fill="url(#paint1_linear_3241_2)"/>
<path d="M0.5 43.4191L73.4977 0.585449L89.9055 10.9592L25.9487 48.7733L40.6822 57.8085L106.313 20.6637L147.5 43.4191V53.7929L73.4977 96.6265L57.4248 85.9181L121.716 48.7733L106.313 40.0727L40.6822 77.2175L0.5 53.7929V43.4191Z" stroke="black"/>
<path d="M0.5 129.086V72.198L73.4977 114.362L147.5 72.198V91.607L73.4977 133.437L16.9077 101.311V119.717L73.4977 151.842L147.5 110.681V129.086L73.4977 171.585L0.5 129.086Z" stroke="black"/>
<path d="M230.843 119.537C234 119.537 236.944 119.004 239.675 117.937C242.406 116.828 245.008 115.399 247.483 113.649L254.139 122.865C251.195 125.383 247.611 127.431 243.387 129.009C239.206 130.545 234.875 131.313 230.395 131.313C223.483 131.313 217.574 129.863 212.667 126.961C207.76 124.017 204.006 119.9 201.403 114.609C198.8 109.319 197.499 103.153 197.499 96.1134C197.499 89.2441 198.8 83.1214 201.403 77.7454C204.048 72.3268 207.846 68.0601 212.795 64.9454C217.744 61.7881 223.696 60.2094 230.651 60.2094C235.259 60.2094 239.504 60.8921 243.387 62.2574C247.27 63.6228 250.832 65.6494 254.075 68.3374L247.483 77.3614C244.838 75.5268 242.128 74.1401 239.355 73.2014C236.624 72.2201 233.808 71.7294 230.907 71.7294C225.574 71.7294 221.2 73.6921 217.787 77.6174C214.416 81.5428 212.731 87.7081 212.731 96.1134C212.731 101.745 213.499 106.289 215.035 109.745C216.614 113.159 218.768 115.655 221.499 117.233C224.23 118.769 227.344 119.537 230.843 119.537ZM311.945 62.0014V119.089H330.313V129.585H277.385V119.089H297.609V72.4974H278.025V62.0014H311.945ZM301.961 28.9134C304.777 28.9134 307.038 29.7668 308.745 31.4734C310.494 33.1801 311.369 35.3134 311.369 37.8734C311.369 40.4334 310.494 42.5881 308.745 44.3374C307.038 46.0868 304.777 46.9614 301.961 46.9614C299.23 46.9614 296.99 46.0868 295.241 44.3374C293.492 42.5881 292.617 40.4334 292.617 37.8734C292.617 35.3134 293.492 33.1801 295.241 31.4734C296.99 29.7668 299.23 28.9134 301.961 28.9134ZM384.727 60.2094C390.7 60.2094 395.479 61.6814 399.063 64.6254C402.647 67.5268 405.25 71.6441 406.871 76.9774C408.492 82.2681 409.303 88.4974 409.303 95.6654C409.303 102.535 408.322 108.657 406.359 114.033C404.396 119.409 401.474 123.633 397.591 126.705C393.751 129.777 388.972 131.313 383.255 131.313C376.172 131.313 370.455 128.817 366.103 123.825V155.569L351.767 157.169V62.0014H364.247L365.143 70.7054C367.703 67.2068 370.668 64.5828 374.039 62.8334C377.452 61.0841 381.015 60.2094 384.727 60.2094ZM380.759 71.2814C377.559 71.2814 374.743 72.2414 372.311 74.1614C369.879 76.0814 367.81 78.3428 366.103 80.9454V112.561C367.724 114.993 369.644 116.871 371.863 118.193C374.124 119.473 376.663 120.113 379.479 120.113C384.3 120.113 387.97 118.172 390.487 114.289C393.004 110.407 394.263 104.22 394.263 95.7294C394.263 89.9694 393.751 85.2974 392.727 81.7134C391.746 78.0868 390.252 75.4414 388.247 73.7774C386.284 72.1134 383.788 71.2814 380.759 71.2814ZM442.853 33.4574V70.2574C445.584 66.9294 448.784 64.4334 452.453 62.7694C456.122 61.0628 459.898 60.2094 463.781 60.2094C470.138 60.2094 474.874 61.9801 477.989 65.5214C481.104 69.0201 482.661 73.9481 482.661 80.3054V129.585H468.325V82.5454C468.325 78.4921 467.557 75.5908 466.021 73.8414C464.485 72.0494 462.01 71.1534 458.597 71.1534C456.464 71.1534 454.416 71.6441 452.453 72.6254C450.533 73.5641 448.741 74.8014 447.077 76.3374C445.456 77.8734 444.048 79.5161 442.853 81.2654V129.585H428.517V34.9934L442.853 33.4574ZM517.171 100.401C517.47 105.009 518.451 108.785 520.115 111.729C521.779 114.631 523.955 116.764 526.643 118.129C529.374 119.495 532.36 120.177 535.603 120.177C538.931 120.177 542.003 119.665 544.819 118.641C547.635 117.617 550.472 116.167 553.331 114.289L559.539 122.865C556.382 125.425 552.691 127.473 548.467 129.009C544.243 130.545 539.72 131.313 534.899 131.313C527.902 131.313 521.971 129.82 517.107 126.833C512.286 123.847 508.616 119.687 506.099 114.353C503.582 109.02 502.323 102.855 502.323 95.8574C502.323 89.0734 503.56 83.0148 506.035 77.6814C508.51 72.3054 512.051 68.0601 516.659 64.9454C521.267 61.7881 526.771 60.2094 533.171 60.2094C539.187 60.2094 544.35 61.5748 548.659 64.3054C553.011 67.0361 556.36 70.9188 558.707 75.9534C561.096 80.9454 562.291 86.9614 562.291 94.0014C562.291 95.1534 562.248 96.3054 562.163 97.4574C562.12 98.5668 562.056 99.5481 561.971 100.401H517.171ZM533.299 70.8334C528.819 70.8334 525.107 72.4334 522.163 75.6334C519.262 78.8334 517.576 83.8254 517.107 90.6094H548.403C548.275 84.2521 546.91 79.3668 544.307 75.9534C541.747 72.5401 538.078 70.8334 533.299 70.8334ZM582.657 129.585V119.345H592.577V72.1774H582.657V62.0014H603.521L606.145 77.6814C608.662 72.0068 611.777 67.6974 615.489 64.7534C619.244 61.7668 624.065 60.2734 629.953 60.2734C631.958 60.2734 633.75 60.4441 635.329 60.7854C636.95 61.0841 638.55 61.4894 640.129 62.0014L635.841 74.2894C634.476 73.9054 633.196 73.6281 632.001 73.4574C630.806 73.2441 629.484 73.1374 628.033 73.1374C623.126 73.1374 618.881 74.9721 615.297 78.6414C611.756 82.3108 608.961 87.5161 606.913 94.2574V119.345H620.545V129.585H582.657ZM627.457 86.8974V70.2574L629.249 62.0014H640.129L637.697 86.8974H627.457ZM683.343 120.305C687.823 120.305 691.386 119.516 694.031 117.937C696.676 116.316 697.999 114.097 697.999 111.281C697.999 109.447 697.615 107.889 696.847 106.609C696.079 105.287 694.543 104.092 692.239 103.025C689.935 101.916 686.436 100.764 681.743 99.5694C677.306 98.4174 673.402 97.0521 670.031 95.4734C666.703 93.8948 664.122 91.8468 662.287 89.3294C660.452 86.8121 659.535 83.5694 659.535 79.6014C659.535 75.7188 660.623 72.3268 662.799 69.4254C664.975 66.5241 668.09 64.2628 672.143 62.6414C676.239 61.0201 681.039 60.2094 686.543 60.2094C692.218 60.2094 697.167 60.9561 701.391 62.4494C705.615 63.9428 709.22 65.7988 712.207 68.0174L706.191 77.0414C703.546 75.2921 700.644 73.8628 697.487 72.7534C694.372 71.6441 690.852 71.0894 686.927 71.0894C682.362 71.0894 679.076 71.7721 677.071 73.1374C675.108 74.5028 674.127 76.3161 674.127 78.5774C674.127 80.2414 674.618 81.6494 675.599 82.8014C676.623 83.9108 678.372 84.9561 680.847 85.9374C683.322 86.8761 686.82 87.9854 691.343 89.2654C695.738 90.4601 699.556 91.8681 702.799 93.4894C706.084 95.1108 708.623 97.2654 710.415 99.9534C712.25 102.599 713.167 106.055 713.167 110.321C713.167 115.185 711.759 119.175 708.943 122.289C706.17 125.361 702.5 127.644 697.935 129.137C693.412 130.588 688.548 131.313 683.343 131.313C677.071 131.313 671.652 130.417 667.087 128.625C662.522 126.791 658.682 124.508 655.567 121.777L663.183 113.073C665.828 115.207 668.858 116.956 672.271 118.321C675.684 119.644 679.375 120.305 683.343 120.305ZM791.965 126.001C789.49 127.58 786.525 128.86 783.069 129.841C779.613 130.823 776.008 131.313 772.253 131.313C764.402 131.313 758.429 129.287 754.333 125.233C750.28 121.137 748.253 115.761 748.253 109.105V72.4334H733.213V62.0014H748.253V46.8974L762.589 45.1694V62.0014H785.373L783.773 72.4334H762.589V108.977C762.589 112.604 763.485 115.313 765.277 117.105C767.112 118.855 770.098 119.729 774.237 119.729C776.712 119.729 778.994 119.431 781.085 118.833C783.176 118.236 785.074 117.468 786.781 116.529L791.965 126.001ZM863.915 113.009C863.915 115.655 864.32 117.596 865.131 118.833C865.942 120.028 867.243 120.924 869.035 121.521L865.835 131.249C862.507 130.865 859.648 129.948 857.259 128.497C854.87 127.047 853.056 124.849 851.819 121.905C849.344 125.02 846.208 127.367 842.411 128.945C838.614 130.524 834.56 131.313 830.251 131.313C823.424 131.313 818.006 129.393 813.995 125.553C810.027 121.671 808.043 116.593 808.043 110.321C808.043 103.196 810.816 97.7134 816.363 93.8734C821.91 90.0334 829.846 88.1134 840.171 88.1134H849.835V83.6974C849.835 79.3454 848.512 76.2094 845.867 74.2894C843.264 72.3694 839.574 71.4094 834.795 71.4094C832.576 71.4094 829.888 71.7081 826.731 72.3054C823.574 72.8601 820.267 73.7348 816.811 74.9294L813.291 64.8174C817.515 63.2388 821.654 62.0868 825.707 61.3614C829.76 60.5934 833.515 60.2094 836.971 60.2094C846.016 60.2094 852.758 62.2148 857.195 66.2254C861.675 70.2361 863.915 75.7828 863.915 82.8654V113.009ZM834.603 120.753C837.504 120.753 840.342 119.985 843.115 118.449C845.888 116.913 848.128 114.759 849.835 111.985V97.0734H841.899C835.158 97.0734 830.336 98.2041 827.435 100.465C824.534 102.684 823.083 105.756 823.083 109.681C823.083 113.265 824.043 116.017 825.963 117.937C827.926 119.815 830.806 120.753 834.603 120.753ZM913.593 120.305C918.073 120.305 921.636 119.516 924.281 117.937C926.926 116.316 928.249 114.097 928.249 111.281C928.249 109.447 927.865 107.889 927.097 106.609C926.329 105.287 924.793 104.092 922.489 103.025C920.185 101.916 916.686 100.764 911.993 99.5694C907.556 98.4174 903.652 97.0521 900.281 95.4734C896.953 93.8948 894.372 91.8468 892.537 89.3294C890.702 86.8121 889.785 83.5694 889.785 79.6014C889.785 75.7188 890.873 72.3268 893.049 69.4254C895.225 66.5241 898.34 64.2628 902.393 62.6414C906.489 61.0201 911.289 60.2094 916.793 60.2094C922.468 60.2094 927.417 60.9561 931.641 62.4494C935.865 63.9428 939.47 65.7988 942.457 68.0174L936.441 77.0414C933.796 75.2921 930.894 73.8628 927.737 72.7534C924.622 71.6441 921.102 71.0894 917.177 71.0894C912.612 71.0894 909.326 71.7721 907.321 73.1374C905.358 74.5028 904.377 76.3161 904.377 78.5774C904.377 80.2414 904.868 81.6494 905.849 82.8014C906.873 83.9108 908.622 84.9561 911.097 85.9374C913.572 86.8761 917.07 87.9854 921.593 89.2654C925.988 90.4601 929.806 91.8681 933.049 93.4894C936.334 95.1108 938.873 97.2654 940.665 99.9534C942.5 102.599 943.417 106.055 943.417 110.321C943.417 115.185 942.009 119.175 939.193 122.289C936.42 125.361 932.75 127.644 928.185 129.137C923.662 130.588 918.798 131.313 913.593 131.313C907.321 131.313 901.902 130.417 897.337 128.625C892.772 126.791 888.932 124.508 885.817 121.777L893.433 113.073C896.078 115.207 899.108 116.956 902.521 118.321C905.934 119.644 909.625 120.305 913.593 120.305ZM980.103 33.4574V70.2574C982.834 66.9294 986.034 64.4334 989.703 62.7694C993.372 61.0628 997.148 60.2094 1001.03 60.2094C1007.39 60.2094 1012.12 61.9801 1015.24 65.5214C1018.35 69.0201 1019.91 73.9481 1019.91 80.3054V129.585H1005.58V82.5454C1005.58 78.4921 1004.81 75.5908 1003.27 73.8414C1001.74 72.0494 999.26 71.1534 995.847 71.1534C993.714 71.1534 991.666 71.6441 989.703 72.6254C987.783 73.5641 985.991 74.8014 984.327 76.3374C982.706 77.8734 981.298 79.5161 980.103 81.2654V129.585H965.767V34.9934L980.103 33.4574Z" fill="white"/>
<defs>
<linearGradient id="paint0_linear_3241_2" x1="0.5" y1="0.585449" x2="147.057" y2="172.013" gradientUnits="userSpaceOnUse">
<stop offset="0.0150081" stop-color="#C8F031"/>
</linearGradient>
<linearGradient id="paint1_linear_3241_2" x1="0.5" y1="0.585449" x2="147.057" y2="172.013" gradientUnits="userSpaceOnUse">
<stop offset="0.0150081" stop-color="#C8F031"/>
</linearGradient>
</defs>
</svg>
