<svg width="148" height="173" viewBox="0 0 148 173" fill="none" xmlns="http://www.w3.org/2000/svg">
<path d="M0.5 43.4191L73.4977 0.585449L89.9055 10.9592L25.9487 48.7733L40.6822 57.8085L106.313 20.6637L147.5 43.4191V53.7929L73.4977 96.6265L57.4248 85.9181L121.716 48.7733L106.313 40.0727L40.6822 77.2175L0.5 53.7929V43.4191Z" fill="url(#paint0_linear_3256_12)"/>
<path d="M0.5 129.086V72.198L73.4977 114.362L147.5 72.198V91.607L73.4977 133.437L16.9077 101.311V119.717L73.4977 151.842L147.5 110.681V129.086L73.4977 171.585L0.5 129.086Z" fill="url(#paint1_linear_3256_12)"/>
<path d="M0.5 43.4191L73.4977 0.585449L89.9055 10.9592L25.9487 48.7733L40.6822 57.8085L106.313 20.6637L147.5 43.4191V53.7929L73.4977 96.6265L57.4248 85.9181L121.716 48.7733L106.313 40.0727L40.6822 77.2175L0.5 53.7929V43.4191Z" stroke="#060606"/>
<path d="M0.5 129.086V72.198L73.4977 114.362L147.5 72.198V91.607L73.4977 133.437L16.9077 101.311V119.717L73.4977 151.842L147.5 110.681V129.086L73.4977 171.585L0.5 129.086Z" stroke="#060606"/>
<defs>
<linearGradient id="paint0_linear_3256_12" x1="0.5" y1="0.585449" x2="147.057" y2="172.013" gradientUnits="userSpaceOnUse">
<stop offset="0.0150081" stop-color="#060606"/>
</linearGradient>
<linearGradient id="paint1_linear_3256_12" x1="0.5" y1="0.585449" x2="147.057" y2="172.013" gradientUnits="userSpaceOnUse">
<stop offset="0.0150081" stop-color="#060606"/>
</linearGradient>
</defs>
</svg>
